<?xml version="1.0" encoding="UTF-8"?>
<svg width="701px" height="270px" viewBox="0 0 701 270" version="1.1" xmlns="http://www.w3.org/2000/svg" xmlns:xlink="http://www.w3.org/1999/xlink">
    <!-- Generator: Sketch 49.3 (51167) - http://www.bohemiancoding.com/sketch -->
    <title>hero-img</title>
    <desc>Created with Sketch.</desc>
    <defs>
        <linearGradient x1="0%" y1="0%" x2="100%" y2="100%" id="linearGradient-1">
            <stop stop-color="#0E921A" stop-opacity="0" offset="100%"></stop>
            <stop stop-color="#00FF4A" offset="47.0872471%"></stop>
            <stop stop-color="#0C9C0C" stop-opacity="0" offset="2.32794436%"></stop>
        </linearGradient>
        <linearGradient x1="97.8453094%" y1="6.21860681%" x2="3.04054484%" y2="100%" id="linearGradient-2">
            <stop stop-color="#920E44" stop-opacity="0" offset="0%"></stop>
            <stop stop-color="#D00A57" offset="50.9347098%"></stop>
            <stop stop-color="#9C0C46" stop-opacity="0" offset="100%"></stop>
        </linearGradient>
        <linearGradient x1="96.0685764%" y1="7.97616092%" x2="3.04054484%" y2="100%" id="linearGradient-3">
            <stop stop-color="#15DBFF" stop-opacity="0" offset="0%"></stop>
            <stop stop-color="#28C2FF" offset="50.9347098%"></stop>
            <stop stop-color="#20CEFF" stop-opacity="0" offset="100%"></stop>
        </linearGradient>
        <ellipse id="path-4" cx="18.4895223" cy="18.4608849" rx="18.397408" ry="18.3739018"></ellipse>
        <filter x="-122.3%" y="-122.5%" width="344.6%" height="344.9%" filterUnits="objectBoundingBox" id="filter-5">
            <feMorphology radius="0.5" operator="dilate" in="SourceAlpha" result="shadowSpreadOuter1"></feMorphology>
            <feOffset dx="0" dy="0" in="shadowSpreadOuter1" result="shadowOffsetOuter1"></feOffset>
            <feGaussianBlur stdDeviation="14.5" in="shadowOffsetOuter1" result="shadowBlurOuter1"></feGaussianBlur>
            <feColorMatrix values="0 0 0 0 0   0 0 0 0 0   0 0 0 0 0  0 0 0 0 0" type="matrix" in="shadowBlurOuter1"></feColorMatrix>
        </filter>
        <linearGradient x1="74.1449586%" y1="-9.12871609%" x2="26.1723383%" y2="41.9351675%" id="linearGradient-6">
            <stop stop-color="#35AFFF" offset="0%"></stop>
            <stop stop-color="#00F8FF" offset="100%"></stop>
        </linearGradient>
        <ellipse id="path-7" cx="14.882798" cy="14.8637824" rx="14.882798" ry="14.8637824"></ellipse>
        <filter x="-70.6%" y="-70.6%" width="241.1%" height="241.3%" filterUnits="objectBoundingBox" id="filter-9">
            <feMorphology radius="0.5" operator="dilate" in="SourceAlpha" result="shadowSpreadOuter1"></feMorphology>
            <feOffset dx="0" dy="0" in="shadowSpreadOuter1" result="shadowOffsetOuter1"></feOffset>
            <feGaussianBlur stdDeviation="6.5" in="shadowOffsetOuter1" result="shadowBlurOuter1"></feGaussianBlur>
            <feColorMatrix values="0 0 0 0 0.254901961   0 0 0 0 0.62745098   0 0 0 0 0.250980392  0 0 0 0.5 0" type="matrix" in="shadowBlurOuter1"></feColorMatrix>
        </filter>
        <ellipse id="path-10" cx="13.1235851" cy="13.1096712" rx="13.1235851" ry="13.1096712"></ellipse>
        <filter x="-80.0%" y="-80.1%" width="260.0%" height="260.2%" filterUnits="objectBoundingBox" id="filter-12">
            <feMorphology radius="0.5" operator="dilate" in="SourceAlpha" result="shadowSpreadOuter1"></feMorphology>
            <feOffset dx="0" dy="0" in="shadowSpreadOuter1" result="shadowOffsetOuter1"></feOffset>
            <feGaussianBlur stdDeviation="6.5" in="shadowOffsetOuter1" result="shadowBlurOuter1"></feGaussianBlur>
            <feColorMatrix values="0 0 0 0 0.768627451   0 0 0 0 0.0941176471   0 0 0 0 0.11372549  0 0 0 0.5 0" type="matrix" in="shadowBlurOuter1"></feColorMatrix>
        </filter>
        <ellipse id="path-13" cx="17.8153903" cy="17.7965019" rx="17.8153903" ry="17.7965019"></ellipse>
        <filter x="-58.9%" y="-59.0%" width="217.9%" height="218.0%" filterUnits="objectBoundingBox" id="filter-15">
            <feMorphology radius="0.5" operator="dilate" in="SourceAlpha" result="shadowSpreadOuter1"></feMorphology>
            <feOffset dx="0" dy="0" in="shadowSpreadOuter1" result="shadowOffsetOuter1"></feOffset>
            <feGaussianBlur stdDeviation="6.5" in="shadowOffsetOuter1" result="shadowBlurOuter1"></feGaussianBlur>
            <feColorMatrix values="0 0 0 0 0.894117647   0 0 0 0 0.0392156863   0 0 0 0 0.37254902  0 0 0 0.5 0" type="matrix" in="shadowBlurOuter1"></feColorMatrix>
        </filter>
        <ellipse id="path-16" cx="12.6114239" cy="12.5980529" rx="12.6114239" ry="12.5980529"></ellipse>
        <filter x="-83.3%" y="-83.3%" width="266.5%" height="266.7%" filterUnits="objectBoundingBox" id="filter-18">
            <feMorphology radius="0.5" operator="dilate" in="SourceAlpha" result="shadowSpreadOuter1"></feMorphology>
            <feOffset dx="0" dy="0" in="shadowSpreadOuter1" result="shadowOffsetOuter1"></feOffset>
            <feGaussianBlur stdDeviation="6.5" in="shadowOffsetOuter1" result="shadowBlurOuter1"></feGaussianBlur>
            <feColorMatrix values="0 0 0 0 0.941176471   0 0 0 0 0.349019608   0 0 0 0 0.164705882  0 0 0 0.5 0" type="matrix" in="shadowBlurOuter1"></feColorMatrix>
        </filter>
        <ellipse id="path-19" cx="10.1097487" cy="10.0990301" rx="10.1097487" ry="10.0990301"></ellipse>
        <filter x="-103.9%" y="-104.0%" width="307.7%" height="307.9%" filterUnits="objectBoundingBox" id="filter-21">
            <feMorphology radius="0.5" operator="dilate" in="SourceAlpha" result="shadowSpreadOuter1"></feMorphology>
            <feOffset dx="0" dy="0" in="shadowSpreadOuter1" result="shadowOffsetOuter1"></feOffset>
            <feGaussianBlur stdDeviation="6.5" in="shadowOffsetOuter1" result="shadowBlurOuter1"></feGaussianBlur>
            <feColorMatrix values="0 0 0 0 0.588235294   0 0 0 0 0.941176471   0 0 0 0 0.262745098  0 0 0 0.5 0" type="matrix" in="shadowBlurOuter1"></feColorMatrix>
        </filter>
        <linearGradient x1="1.04983333%" y1="90.3543444%" x2="95.1963333%" y2="21.3764613%" id="linearGradient-22">
            <stop stop-color="#FF0264" offset="0%"></stop>
            <stop stop-color="#FE624E" offset="40.83%"></stop>
            <stop stop-color="#FDBC39" offset="81.65%"></stop>
            <stop stop-color="#FDDF31" offset="100%"></stop>
        </linearGradient>
        <linearGradient x1="129.279198%" y1="20.9620167%" x2="-126.158169%" y2="145.525806%" id="linearGradient-23">
            <stop stop-color="#FF3758" offset="0%"></stop>
            <stop stop-color="#054E91" offset="100%"></stop>
        </linearGradient>
        <linearGradient x1="98.2774314%" y1="65.4796342%" x2="2.99783874%" y2="34.9292602%" id="linearGradient-24">
            <stop stop-color="#FF0264" offset="0%"></stop>
            <stop stop-color="#FE624E" offset="40.83%"></stop>
            <stop stop-color="#FDBC39" offset="81.65%"></stop>
            <stop stop-color="#FDDF31" offset="100%"></stop>
        </linearGradient>
        <linearGradient x1="0.0421734796%" y1="49.9852803%" x2="100.018843%" y2="49.9852803%" id="linearGradient-25">
            <stop stop-color="#140A3B" offset="0%"></stop>
            <stop stop-color="#064E91" offset="68.04%"></stop>
            <stop stop-color="#006AB4" offset="100%"></stop>
        </linearGradient>
        <linearGradient x1="0.464918256%" y1="50.004856%" x2="173.38188%" y2="50.004856%" id="linearGradient-26">
            <stop stop-color="#349FD3" offset="0%"></stop>
            <stop stop-color="#218ABE" offset="35.17%"></stop>
            <stop stop-color="#00679B" offset="100%"></stop>
        </linearGradient>
        <linearGradient x1="-0.0291469194%" y1="49.9818841%" x2="99.8646919%" y2="49.9818841%" id="linearGradient-27">
            <stop stop-color="#A34CB4" offset="0%"></stop>
            <stop stop-color="#954DB2" offset="9.192359%"></stop>
            <stop stop-color="#3C52A1" offset="71.69%"></stop>
            <stop stop-color="#19549B" offset="100%"></stop>
        </linearGradient>
    </defs>
    <g id="Symbols" stroke="none" stroke-width="1" fill="none" fill-rule="evenodd">
        <g id="hero-img" transform="translate(1.000000, -40.000000)">
            <g transform="translate(-1.000000, 42.000000)">
                <g id="illo" opacity="0.600000024">
                    <g id="orbits" transform="translate(0.000000, 0.801389)" fill-rule="nonzero">
                        <path d="M351.168212,105.127972 C312.072259,105.127972 280.477531,96.306671 280.477531,84.742297 C280.477531,73.1779231 312.072259,64.3566219 351.168212,64.3566219 C390.264165,64.3566219 421.858894,73.1779231 421.858894,84.742297 C421.858894,96.306671 390.264165,105.127972 351.168212,105.127972 Z M351.168212,103.327972 C389.160918,103.327972 420.058894,94.7012055 420.058894,84.742297 C420.058894,74.7833886 389.160918,66.1566219 351.168212,66.1566219 C313.175507,66.1566219 282.277531,74.7833886 282.277531,84.742297 C282.277531,94.7012055 313.175507,103.327972 351.168212,103.327972 Z" id="Oval-Copy-5" fill-opacity="0.355808424" fill="#B1F5F6"></path>
                        <path d="M351.168212,125.715991 C277.560956,125.715991 218.003869,109.430845 218.003869,88.6499489 C218.003869,67.8690526 277.560956,51.5839069 351.168212,51.5839069 C424.775469,51.5839069 484.332556,67.8690526 484.332556,88.6499489 C484.332556,109.430845 424.775469,125.715991 351.168212,125.715991 Z M351.168212,123.915991 C423.656116,123.915991 482.532556,107.81696 482.532556,88.6499489 C482.532556,69.4829383 423.656116,53.3839069 351.168212,53.3839069 C278.680309,53.3839069 219.803869,69.4829383 219.803869,88.6499489 C219.803869,107.81696 278.680309,123.915991 351.168212,123.915991 Z" id="Oval-Copy-5" fill-opacity="0.13915308" fill="#B1F5F6"></path>
                        <path d="M351.168212,154.222242 C241.730217,154.222242 153.088906,128.598972 153.088906,96.3242286 C153.088906,64.0494855 241.730217,38.4262157 351.168212,38.4262157 C460.606208,38.4262157 549.247519,64.0494855 549.247519,96.3242286 C549.247519,128.598972 460.606208,154.222242 351.168212,154.222242 Z M351.168212,152.422242 C459.528464,152.422242 547.447519,127.007752 547.447519,96.3242286 C547.447519,65.6407052 459.528464,40.2262157 351.168212,40.2262157 C242.80796,40.2262157 154.888906,65.6407052 154.888906,96.3242286 C154.888906,127.007752 242.80796,152.422242 351.168212,152.422242 Z" id="Oval-Copy-5" fill-opacity="0.150956748" fill="#B1F5F6"></path>
                        <path d="M549.247519,96.3242286 L547.447519,96.3242286 C547.447519,82.8876151 530.277205,69.9091751 499.485718,59.7126974 L500.051563,58.0039495 C531.523928,68.4258971 549.247519,81.82254 549.247519,96.3242286 Z" id="Oval-Copy-5" fill="url(#linearGradient-1)"></path>
                        <path d="M260.034259,44.8560614 L260.302399,46.6359774 C217.966906,53.0137043 184.887652,63.675388 167.741562,76.4881804 L166.664081,75.0462945 C184.099989,62.0169296 217.430861,51.2741474 260.034259,44.8560614 Z" id="Oval-Copy-9" fill="url(#linearGradient-2)"></path>
                        <path d="M315.528232,130.324129 L315.779247,132.10654 C278.591241,137.343681 250.649483,144.97698 212.335236,158.812801 L211.723871,157.119806 C250.145414,143.245239 278.200752,135.580911 315.528232,130.324129 Z" id="Oval-Copy-14" fill="url(#linearGradient-3)" transform="translate(263.751559, 144.568465) rotate(-157.000000) translate(-263.751559, -144.568465) "></path>
                        <path d="M350.38458,188.838073 C211.654444,188.838073 99.2043693,152.618745 99.2043693,107.324689 C99.2043693,62.0306339 211.654444,25.8113062 350.38458,25.8113062 C489.114716,25.8113062 601.564791,62.0306339 601.564791,107.324689 C601.564791,152.618745 489.114716,188.838073 350.38458,188.838073 Z M350.38458,187.038073 C488.106331,187.038073 599.764791,151.073718 599.764791,107.324689 C599.764791,63.5756605 488.106331,27.6113062 350.38458,27.6113062 C212.662829,27.6113062 101.004369,63.5756605 101.004369,107.324689 C101.004369,151.073718 212.662829,187.038073 350.38458,187.038073 Z" id="Oval-Copy-6" fill-opacity="0.111724411" fill="#B1F5F6"></path>
                        <path d="M350.38458,225.599953 C187.062289,225.599953 54.6303746,178.502482 54.6303746,119.839372 C54.6303746,61.1762623 187.062289,14.0787911 350.38458,14.0787911 C513.706871,14.0787911 646.138786,61.1762623 646.138786,119.839372 C646.138786,178.502482 513.706871,225.599953 350.38458,225.599953 Z M350.38458,223.799953 C512.749251,223.799953 644.338786,177.002062 644.338786,119.839372 C644.338786,62.6766824 512.749251,15.8787911 350.38458,15.8787911 C188.019909,15.8787911 56.4303746,62.6766824 56.4303746,119.839372 C56.4303746,177.002062 188.019909,223.799953 350.38458,223.799953 Z" id="Oval-Copy-7" fill-opacity="0.05" fill="#B1F5F6"></path>
                        <path d="M350.38458,267.05484 C157.239363,267.05484 0.606269602,207.53262 0.606269602,133.57742 C0.606269602,59.6222196 157.239363,0.1 350.38458,0.1 C543.529797,0.1 700.162891,59.6222196 700.162891,133.57742 C700.162891,207.53262 543.529797,267.05484 350.38458,267.05484 Z M350.38458,265.25484 C542.599704,265.25484 698.362891,206.063194 698.362891,133.57742 C698.362891,61.0916457 542.599704,1.9 350.38458,1.9 C158.169456,1.9 2.4062696,61.0916457 2.4062696,133.57742 C2.4062696,206.063194 158.169456,265.25484 350.38458,265.25484 Z" id="Oval-Copy-8" fill-opacity="0.05" fill="#B1F5F6"></path>
                        <path d="M427.370845,184.555151 L427.211274,182.762238 C484.205465,177.6897 531.288492,165.097686 563.206766,148.612543 L564.032766,150.211831 C531.894225,166.810738 484.586183,179.462931 427.370845,184.555151 Z" id="Oval-Copy-5" fill="url(#linearGradient-2)"></path>
                    </g>
                    <g id="services" transform="translate(108.983184, 42.000000)">
                        <g id="database" transform="translate(135.506713, 86.517570)">
                            <g id="bg">
                                <use fill="black" fill-opacity="1" filter="url(#filter-5)" xlink:href="#path-4"></use>
                                <use fill="#003B6E" fill-rule="evenodd" xlink:href="#path-4"></use>
                            </g>
                            <path d="M6.22682357,32.1529999 C9.74246274,28.9828013 10.0414465,25.2939337 11.5110052,24.368016 L15.3694377,24.6461271 C16.024934,24.6934346 16.08371,24.4913024 15.4916489,24.1938382 L12.9879326,22.9366042 C12.395513,22.6391401 12.4524971,22.3925674 13.1162364,22.385758 L16.2170313,22.3538612 C16.8807706,22.3470518 16.9155345,22.1395437 16.3016115,21.8901039 C16.3016115,21.8901039 11.8969918,20.499907 11.8969918,20.1060358 C11.8969918,19.7121646 11.0984977,15.9203927 9.85201538,13.4191852 C6.39486821,6.48119961 20.2851066,10.9035816 33.9742078,28.155076 C30.7172998,33.3176935 24.9584389,36.7478036 18.397408,36.7478036 C13.730889,36.7478036 9.47016658,35.0126019 6.22682357,32.1529999 Z" id="fin" fill="url(#linearGradient-6)" fill-rule="nonzero"></path>
                        </g>
                        <g id="search" transform="translate(404.509046, 16.817893)">
                            <mask id="mask-8" fill="white">
                                <use xlink:href="#path-7"></use>
                            </mask>
                            <g id="Oval-5-Copy-3">
                                <use fill="black" fill-opacity="1" filter="url(#filter-9)" xlink:href="#path-7"></use>
                                <use fill="#FFFFFF" fill-rule="evenodd" xlink:href="#path-7"></use>
                            </g>
                            <g id="Group" mask="url(#mask-8)" fill="#59BA58" fill-rule="nonzero">
                                <g transform="translate(-1.000000, 0.000000)" id="Shape">
                                    <path d="M2.0036036,7.65687204 C1.64324324,8.26729858 1.31171171,8.89099526 1.05225225,9.54123223 C1.15315315,9.5014218 1.25405405,9.47488152 1.35495495,9.46161137 C1.85945946,9.39526066 2.17657658,9.06350711 2.37837838,8.61232227 C2.50810811,8.20094787 2.13333333,7.8957346 2.0036036,7.65687204"></path>
                                    <path d="M13.8234234,8.89099526 C13.6648649,8.25402844 13.3045045,7.72322275 12.627027,7.48436019 C11.4738739,7.07298578 10.3351351,7.2056872 9.18198198,7.52417062 C8.69189189,7.65687204 8.17297297,7.81611374 7.66846847,7.82938389 C6.91891892,7.84265403 6.16936937,7.73649289 5.54954955,7.17914692 C4.98738739,6.66161137 4.62702703,6.02464455 4.36756757,5.33459716 C4.32432432,5.20189573 4.26666667,5.01611374 4.22342342,4.81706161 C3.61801802,5.42748815 3.07027027,6.07772512 2.56576577,6.76777251 C2.72432432,7.17914692 2.94054054,7.76303318 2.9981982,7.94881517 C3.15675676,8.45308057 3.38738739,8.89099526 3.93513514,9.06350711 C5.29009009,9.48815166 6.12612613,10.4436019 6.67387387,11.7042654 C6.73153153,11.8236967 6.77477477,11.9563981 6.81801802,12.0758294 C7.01981982,12.6464455 7.43783784,12.9649289 8.02882883,13.07109 C8.57657658,13.163981 9.15315315,13.2436019 9.65765766,13.4691943 C10.1477477,13.6815166 10.5801802,14.0530806 11.027027,14.3848341 C11.4162162,14.6635071 11.7765766,14.9819905 12.1513514,15.2872038 C12.2954955,15.4066351 12.4396396,15.3800948 12.5117117,15.2341232 C12.627027,15.0218009 12.6846847,14.7696682 12.8144144,14.557346 C13.4486486,13.4824645 13.3333333,12.5933649 13.6216216,11.6113744 C13.9243243,10.7222749 14.0540541,9.80663507 13.8234234,8.89099526"></path>
                                    <path d="M16.6198198,1.24739336 C16.5333333,1.04834123 16.418018,0.8492891 16.3027027,0.663507109 C16.2162162,0.517535545 16.1009009,0.291943128 16.0144144,0.0928909953 C16,0.0928909953 15.9711712,0.0928909953 15.9567568,0.0928909953 C13.9531532,0.0928909953 12.036036,0.437914692 10.2630631,1.06161137 C10.2774775,1.16777251 10.2918919,1.28720379 10.2918919,1.4464455 C10.2918919,1.59241706 10.3495495,1.73838863 10.363964,1.89763033 C10.4216216,2.50805687 10.5513514,3.10521327 10.8684685,3.62274882 C11.4018018,4.47203791 12.1801802,4.96303318 13.1603604,5.13554502 C13.2612613,5.14881517 14.3567568,5.0028436 14.5585586,4.53838863 C14.7315315,4.12701422 15.0342342,3.76872038 15.2504505,3.38388626 C15.4666667,2.98578199 15.7261261,2.72037915 16.1441441,2.5478673 C16.8504505,2.24265403 16.9513514,1.9507109 16.6198198,1.24739336"></path>
                                    <path d="M28.2666667,5.41421801 C28.2666667,5.53364929 27.9063063,5.82559242 27.8198198,5.86540284 C27.5747748,5.97156398 27.3153153,6.02464455 27.0558559,6.07772512 C26.436036,6.18388626 25.8594595,6.42274882 25.3837838,6.80758294 C25.0810811,7.0464455 24.8792793,7.40473934 24.6342342,7.70995261 C24.5189189,7.86919431 24.4036036,8.492891 24.3603604,8.63886256 C24.1153153,9.54123223 24.0432432,10.4436019 24.172973,11.3592417 C24.2306306,11.7440758 24.5477477,11.9033175 24.8792793,11.9696682 C25.5423423,12.1156398 26.2198198,12.1819905 26.8684685,11.9696682 C27.3585586,11.8104265 27.5603604,11.3592417 27.6756757,10.8815166 C27.790991,10.4037915 27.8342342,9.89952607 28.0216216,9.46161137 C28.3099099,8.81137441 28.7135135,8.21421801 29.4054054,7.88246445 C29.563964,7.8028436 29.7801802,7.74976303 29.981982,7.73649289 C29.4918919,6.90047393 28.9153153,6.13080569 28.2666667,5.41421801"></path>
                                    <path d="M30.9477477,18.3260664 C30.7315315,18.4454976 30.4576577,18.4985782 30.2126126,18.4985782 C29.6504505,18.4985782 29.0738739,18.4056872 28.5117117,18.6047393 C27.9927928,18.7905213 27.6468468,19.1488152 27.5027027,19.692891 C27.4162162,20.0246445 27.618018,20.343128 27.9783784,20.52891 C28.6702703,20.8739336 29.3333333,20.8208531 30.0108108,20.4890995 C30.0972973,20.4492891 30.4576577,20.3165877 30.818018,20.2369668 C31.1207207,19.5469194 31.3657658,18.8303318 31.5387387,18.0872038 C31.3081081,18.1800948 31.0486486,18.2597156 30.9477477,18.3260664"></path>
                                    <path d="M4.77117117,12.9649289 C4.58378378,12.0758294 4.00720721,11.4388626 3.25765766,11.014218 C2.95495495,10.8417062 2.52252252,10.8682464 2.14774775,10.8549763 C1.87387387,10.8417062 1.00900901,10.8549763 0.590990991,10.828436 C0.216216216,12.0492891 0.0144144144,13.3232227 1.77635684e-15,14.6369668 C0.187387387,14.6236967 1.05225225,14.9819905 1.34054054,14.9952607 C2.27747748,15.0218009 3.22882883,15.0218009 4.03603604,14.3450237 C4.23783784,14.185782 4.43963964,14.0132701 4.64144144,13.8540284 C4.84324324,13.7080569 4.84324324,13.256872 4.77117117,12.9649289"></path>
                                    <path d="M0.100900901,16.2293839 C0.0864864865,16.2161137 0.0720720721,16.2028436 0.0720720721,16.1895735 C0.187387387,17.3308057 0.446846847,18.4322275 0.836036036,19.4805687 C0.864864865,19.4540284 1.15315315,19.2417062 1.26846847,19.1753555 C1.87387387,18.8037915 2.11891892,18.0208531 2.27747748,17.4104265 C2.0036036,16.7867299 0.374774775,16.5345972 0.100900901,16.2293839"></path>
                                    <path d="M28.3675676,22.3867299 C27.8918919,22.214218 27.4162162,22.0018957 26.9837838,21.7364929 C26.6234234,21.5241706 26.3063063,21.2189573 25.9747748,20.9535545 C25.7009009,20.7279621 25.3693694,20.5952607 25.009009,20.6085308 C24.0144144,20.6616114 23.0054054,20.6616114 22.0252252,20.7943128 C20.9009009,20.9535545 20.0216216,21.5905213 19.3441441,22.492891 C19.0558559,22.8777251 18.7963964,23.2625592 18.6954955,23.7402844 C18.4216216,24.9876777 18.8252252,26.1819905 20.2234234,26.6199052 C20.8576577,26.8189573 21.5207207,26.9781991 22.1117117,27.2966825 C22.4864865,27.4957346 22.8612613,27.7080569 23.2216216,27.9203791 C25.9027027,26.6597156 28.1513514,24.7222749 29.6936937,22.3601896 C29.2468468,22.4530806 28.8144144,22.5459716 28.3675676,22.3867299"></path>
                                    <path d="M30.4432432,8.57251185 C30.8612613,9.40853081 31.2072072,10.2843602 31.4666667,11.2 C31.3081081,11.1336493 31.1495495,11.0672986 31.0198198,11.014218 C30.9333333,10.9744076 30.8324324,10.9478673 30.7459459,10.921327 C30.3423423,10.8151659 29.9387387,10.735545 29.5783784,10.5364929 C29.4486486,10.4701422 29.3477477,10.2843602 29.3621622,10.1383886 C29.4198198,9.5943128 29.7081081,9.09004739 30.1405405,8.71848341 C30.2414414,8.61232227 30.4432432,8.57251185 30.4432432,8.57251185 Z"></path>
                                    <path d="M26.0900901,3.42369668 C26.0468468,3.62274882 25.9603604,3.82180095 25.9459459,3.9014218 C25.772973,4.35260664 25.8882883,4.97630332 26.363964,4.97630332 C26.6666667,4.97630332 26.8252252,4.88341232 27.0126126,4.83033175 C27.0990991,4.80379147 27.3585586,4.64454976 27.4738739,4.60473934 C27.0414414,4.18009479 26.5801802,3.78199052 26.0900901,3.42369668"></path>
                                    <path d="M13.4486486,24.27109 C13.1747748,23.1165877 12.8432432,21.9886256 12.554955,20.8473934 C12.4252252,20.3165877 12.3099099,19.785782 12.2522523,19.2417062 C12.209009,18.856872 12.0504505,18.5914692 11.7765766,18.3526066 C11.3009009,17.9279621 10.8540541,17.4369668 10.3207207,17.0919431 C9.71531532,16.6938389 9.06666667,16.3488152 8.34594595,16.1763033 C7.53873874,15.9772512 6.76036036,16.0303318 5.9963964,16.2559242 C5.16036036,16.521327 4.41081081,16.9592417 4.07927928,17.8881517 C3.96396396,18.2199052 3.69009009,19.228436 3.2,19.9450237 C2.58018018,20.3962085 1.74414414,20.8075829 1.45585586,20.8606635 C1.44144144,20.8606635 1.41261261,20.8606635 1.3981982,20.8606635 C2.86846847,23.8729858 5.40540541,26.3279621 8.57657658,27.8540284 L9.81621622,27.349763 C10.363964,27.1241706 10.954955,27.0047393 11.5171171,26.8056872 C12.1945946,26.5668246 12.8432432,26.2483412 13.2468468,25.5848341 C13.4918919,25.1601896 13.5495495,24.7090047 13.4486486,24.27109"></path>
                                    <path d="M9.4990991,3.42369668 C9.2972973,2.91943128 8.98018018,2.14976303 8.98018018,1.56587678 C7.36576577,2.2957346 5.90990991,3.25118483 4.67027027,4.4056872 C4.78558559,4.57819905 5.40540541,5.16208531 5.49189189,5.26824645 C5.70810811,5.507109 6.11171171,5.81232227 6.51531532,5.87867299 C7.07747748,5.97156398 7.63963964,6.01137441 8.2018018,5.78578199 C8.72072072,5.57345972 9.15315315,5.24170616 9.44144144,4.77725118 C9.7009009,4.35260664 9.68648649,3.88815166 9.4990991,3.42369668"></path>
                                    <path d="M23.3513514,1.75165877 C23.3225225,1.97725118 22.818018,2.5478673 22.6882883,2.72037915 C22.5297297,2.93270142 22.2990991,3.1450237 22.0540541,3.19810427 C21.3189189,3.38388626 20.554955,3.50331754 19.8054054,3.66255924 C19.2,3.79526066 18.5945946,3.92796209 18.0036036,4.12701422 C17.2684685,4.36587678 16.3459459,5.05592417 16.2018018,5.9450237 C16.0864865,6.66161137 16.0144144,7.40473934 16.245045,8.12132701 C16.5045045,8.9971564 16.6486486,9.91279621 16.7495495,10.828436 C16.7927928,11.2132701 16.9657658,11.7175355 17.354955,11.6511848 C17.9315315,11.5450237 18.8972973,11.0274882 20.3387387,11.2398104 C20.8576577,11.3194313 21.8378378,11.0672986 21.8954955,10.5364929 C21.981982,9.71374408 22.0252252,8.89099526 22.1117117,8.08151659 C22.2558559,6.67488152 22.9765766,5.62654028 24.1585586,4.88341232 C24.4756757,4.68436019 24.6486486,4.41895735 24.7207207,4.04739336 C24.7783784,3.72890995 24.8504505,3.3971564 24.9801802,3.10521327 C25.0234234,2.99905213 25.1675676,2.87962085 25.2828829,2.82654028 C24.6486486,2.42843602 24.0144144,2.07014218 23.3513514,1.75165877"></path>
                                    <path d="M31.7261261,12.3412322 C31.4522523,12.3279621 31.0054054,12.2881517 30.9621622,12.2748815 C30.2846847,12.12891 29.7225225,12.3014218 29.2468468,12.8056872 C29.1459459,12.9251185 28.4396396,13.535545 28.3099099,13.5886256 C25.8594595,14.5308057 23.0774775,14.5706161 22.3279279,14.5042654 C22.1405405,14.4909953 20.4252252,14.2123223 19.7621622,14.2123223 C18.6954955,14.2123223 17.7441441,14.5175355 17.1243243,15.4464455 C16.8792793,15.8047393 16.6774775,16.2161137 16.5477477,16.6407583 C16.3891892,17.1184834 16.172973,17.6094787 16.2882883,18.1270142 C16.4036036,18.6578199 16.4036036,19.228436 16.8072072,19.6663507 C17.0954955,19.9848341 17.4846847,20.0511848 17.8594595,19.9450237 C18.3351351,19.8123223 18.8108108,19.6132701 19.2576577,19.3611374 C20.8432432,18.4720379 22.5009009,18.0872038 24.3171171,18.4587678 C24.9081081,18.5781991 25.4990991,18.4720379 26.018018,18.1137441 C26.4504505,17.8085308 26.9117117,17.5298578 27.3585586,17.2379147 C27.7765766,16.9592417 28.2522523,16.892891 28.7423423,16.9194313 C29.2468468,16.9459716 29.7369369,16.9327014 30.2414414,16.985782 C30.8036036,17.0388626 31.236036,16.7734597 31.6828829,16.5345972 C31.754955,16.4947867 31.8126126,16.4549763 31.8702703,16.4151659 C31.9279279,15.8843602 31.9711712,15.3535545 31.9711712,14.8227488 C31.9423423,13.9601896 31.8702703,13.1374408 31.7261261,12.3412322"></path>
                                    <path d="M17.0234234,0.11943128 C17.2540541,0.371563981 17.4558559,0.650236967 17.6432432,0.928909953 C17.7873874,1.15450237 17.9027027,1.40663507 17.9747748,1.65876777 C18.0612613,1.9507109 18.2630631,2.05687204 18.5225225,2.03033175 C19.3873874,1.9507109 20.2522523,1.85781991 21.1171171,1.73838863 C21.390991,1.6985782 21.636036,1.51279621 21.8810811,1.38009479 C21.981982,1.32701422 22.0828829,1.27393365 22.1693694,1.24739336 C20.5837838,0.623696682 18.8396396,0.238862559 17.0234234,0.11943128"></path>
                                </g>
                            </g>
                        </g>
                        <g id="mailgun" transform="translate(88.058522, 0.710570)">
                            <mask id="mask-11" fill="white">
                                <use xlink:href="#path-10"></use>
                            </mask>
                            <g id="Oval-8">
                                <use fill="black" fill-opacity="1" filter="url(#filter-12)" xlink:href="#path-10"></use>
                                <use fill="#FFFFFF" fill-rule="evenodd" xlink:href="#path-10"></use>
                            </g>
                            <path d="M13,9.59685187 C11.1205074,9.59685187 9.5961945,11.1213438 9.5961945,13.0010572 C9.5961945,14.8807706 11.1205074,16.4052625 13,16.4052625 C14.8794926,16.4052625 16.4038055,14.8807706 16.4038055,13.0010572 C16.4038055,11.1213438 14.8816068,9.59685187 13,9.59685187 Z M7.69344609,13.0010572 C7.69344609,10.068366 10.0697674,7.69387995 13,7.69387995 C15.9323467,7.69387995 18.3086681,10.0704804 18.3086681,13.0010572 C18.3086681,13.1955832 18.2980973,13.3858804 18.2790698,13.5740632 C18.2389006,14.0920944 18.6194503,14.4874897 19.1331924,14.4874897 C20.0063425,14.4874897 20.0993658,13.3626219 20.0993658,13.0010572 C20.0993658,9.08093504 16.9217759,5.90508634 13.0042283,5.90508634 C9.08668076,5.90508634 5.90486258,9.08304945 5.90486258,13.0010572 C5.90486258,16.9211794 9.08245243,20.0970281 13,20.0970281 C15.0803383,20.0970281 16.9534884,19.2005169 18.2515856,17.7732879 L19.7103594,18.9975332 C18.0634249,20.8391871 15.6659619,22 13,22 C8.02959831,22 4,17.9699283 4,12.9989428 C4,8.02795724 8.02959831,4 13,4 C17.9704017,4 22,8.03007166 22,13.0010572 C22,14.9991777 21.0486258,16.6209327 19.1374207,16.6209327 C18.2959831,16.6209327 17.7843552,16.2361095 17.5052854,15.8047692 C16.5708245,17.3102314 14.9027484,18.3103489 13,18.3103489 C10.0697674,18.3103489 7.69344609,15.9337484 7.69344609,13.0010572 Z M13,11.4448491 C13.8604651,11.4448491 14.5581395,12.1426054 14.5581395,13.0031716 C14.5581395,13.8637378 13.8604651,14.5614942 13,14.5614942 C12.1395349,14.5614942 11.4418605,13.8637378 11.4418605,13.0031716 C11.4418605,12.1426054 12.1395349,11.4448491 13,11.4448491 Z" id="Shape" fill="#C12126" fill-rule="nonzero" mask="url(#mask-11)"></path>
                        </g>
                        <g id="logDNA" transform="translate(370.497973, 112.553568)">
                            <mask id="mask-14" fill="white">
                                <use xlink:href="#path-13"></use>
                            </mask>
                            <g id="Oval-8">
                                <use fill="black" fill-opacity="1" filter="url(#filter-15)" xlink:href="#path-13"></use>
                                <use fill="#FFFFFF" fill-rule="evenodd" xlink:href="#path-13"></use>
                            </g>
                            <path d="M17.8971501,12.5927662 C17.3691528,12.6129051 16.5274289,12.6474537 15.6855899,12.6747685 C15.5399434,12.6795139 15.4652795,12.7122106 15.5187177,12.8743634 C15.6361207,13.2301505 15.7518556,13.5865162 15.8661524,13.9433449 C15.9041747,14.0619213 15.9819449,14.1002894 16.1032019,14.1048032 C17.5189409,14.1573495 18.93468,14.2110532 20.3500164,14.2739583 C20.5484684,14.2828125 20.6204288,14.1993634 20.6502253,14.0221065 C20.7188494,13.6146412 20.796332,13.2087963 20.8688676,12.8020255 C20.9186819,12.5228588 20.9079253,12.5048611 20.6223845,12.5121528 C19.8184527,12.5327546 19.014751,12.5592014 17.8971501,12.5927662 M17.7303929,22.1966435 C17.7304505,22.1982639 17.730508,22.1999421 17.7305655,22.2015046 C18.5627407,22.1663773 19.3948585,22.128588 20.2272063,22.098206 C20.3846448,22.0924769 20.4629327,22.0605324 20.4010962,21.8803819 C20.2701179,21.4987847 20.1467901,21.1144097 20.0244401,20.7298611 C19.9831966,20.6001157 19.9053114,20.5492477 19.7694437,20.5521991 C19.597452,20.5559606 19.4250577,20.5402778 19.2528359,20.5328704 C18.0573497,20.4811921 16.8617486,20.4315972 15.6664925,20.3751736 C15.5015185,20.367419 15.424151,20.418287 15.3965978,20.5880208 C15.3181374,21.0718171 15.2247787,21.5530671 15.1390129,22.035706 C15.0977119,22.2678819 15.1079509,22.2790509 15.3473587,22.2717014 C16.1416843,22.2472222 16.9360674,22.2217593 17.7303929,22.1966435 M18.0459028,9.47696759 C18.0459603,9.4744213 18.0460754,9.471875 18.0461904,9.4693287 C18.2567796,9.47881944 18.4673112,9.49074074 18.6780154,9.49739583 C19.4538763,9.52199074 20.2297948,9.54646991 21.0058282,9.56545139 C21.0752001,9.5671875 21.1721827,9.55121528 21.2105501,9.50497685 C21.3308293,9.35983796 21.2374706,8.94988426 21.0725541,8.85353009 C20.3935608,8.4568287 19.716063,8.05752315 19.0327555,7.66846065 C18.3528418,7.28125 17.662229,7.27650463 16.9803596,7.66163194 C16.312353,8.03883102 15.6564836,8.43790509 14.9853133,8.80896991 C14.7794985,8.92280093 14.8070517,9.07783565 14.8281049,9.24826389 C14.8536448,9.45549769 15.0213223,9.39861111 15.1427519,9.4021412 C16.1103922,9.43032407 17.0781475,9.45277778 18.0459028,9.47696759 M16.2648396,22.8649306 C16.264782,22.8663773 16.2647245,22.8678241 16.264667,22.869213 C15.9205686,22.8523727 15.5762975,22.8385417 15.2324292,22.817419 C15.0795924,22.808044 15.0091851,22.8605903 14.9933665,23.023669 C14.9486141,23.4829861 14.8855121,23.9403935 14.8354102,24.3992477 C14.8095252,24.6361111 14.831096,24.657581 15.051349,24.6517361 C16.1993792,24.6210069 17.3474669,24.5916667 18.4953246,24.5565972 C19.2317827,24.5341435 19.9680683,24.5061343 20.7041237,24.4732639 C20.9725228,24.4612847 20.9728679,24.4510417 20.921558,24.1795718 C20.8699605,23.9057292 20.8186506,23.6318866 20.7647522,23.3585648 C20.6968184,23.0146412 20.6958405,23.0114583 20.3391447,22.9993634 C18.9811005,22.9532407 17.6229413,22.9095486 16.2648396,22.8649306 M18.12885,10.2045139 C18.1287924,10.2208912 18.1287924,10.2372106 18.1287349,10.2535301 C17.6123572,10.2535301 17.0958644,10.2483218 16.5794866,10.2550926 C16.1203435,10.2610532 15.6614306,10.2873843 15.2022875,10.2903356 C15.0151099,10.2915509 14.9693221,10.3668981 15.0034904,10.5363426 C15.0624508,10.8282986 15.1150837,11.1215278 15.1698449,11.414294 C15.2360531,11.7681134 15.2358805,11.7667245 15.5852135,11.7780093 C16.6944162,11.813831 17.8036188,11.8508681 18.9128215,11.8873264 C19.5248014,11.9074653 20.1369538,11.9233218 20.748646,11.9502894 C20.9236288,11.958044 21.0115805,11.9099537 21.0288371,11.7204861 C21.0682975,11.2898148 21.132895,10.8614583 21.1709173,10.4306713 C21.19732,10.1318866 21.1851253,10.1280671 20.8837084,10.1352431 C19.9653647,10.1571181 19.0471361,10.1813079 18.12885,10.2045139 M17.9052608,25.2952546 C17.9051457,25.2979745 17.9050307,25.3006944 17.9049156,25.3033565 C17.6754591,25.2923032 17.4460602,25.2788773 17.2164886,25.2706597 C16.4797429,25.2445023 15.7428821,25.2230324 15.006309,25.1932292 C14.8363881,25.1863426 14.7572949,25.2413773 14.7649454,25.4211806 C14.7706401,25.5553241 14.7677064,25.6930556 14.743317,25.8244213 C14.7128302,25.9887731 14.7854808,26.06875 14.9169193,26.1439815 C15.607072,26.5389468 16.2896317,26.9473958 16.9817401,27.3387731 C17.6736184,27.729919 18.3705012,27.7139468 19.0576627,27.3180556 C19.6968506,26.9498264 20.3343703,26.5785301 20.9714299,26.2065394 C21.2149218,26.0644097 21.2149218,26.0085069 21.1312844,25.5615741 C21.0859568,25.319213 20.9088456,25.3835069 20.7763717,25.3787616 C19.8195457,25.3446181 18.8623169,25.3217014 17.9052608,25.2952546 M9.01685615,17.4885417 C9.01685615,18.8195602 9.01426764,20.1505208 9.01783402,21.4815394 C9.01990483,22.2778935 9.35405192,22.8976273 10.0387975,23.3027778 C11.0953097,23.9279514 12.1592999,24.5403356 13.2215068,25.1556134 C13.4437155,25.284375 13.4342243,25.2750579 13.4712111,25.0302083 C13.6175479,24.0604745 13.7289111,23.0822338 13.9390401,22.1262153 C14.2196339,20.8497106 14.7704675,19.687963 15.6542978,18.7073495 C15.9282765,18.4033565 16.255751,18.1715856 16.6309691,18.0100116 C16.6613984,17.9969329 16.6995357,18.0021412 16.734049,17.9987847 C16.7128233,18.0180556 16.692748,18.0387731 16.6701993,18.0563657 C16.1636578,18.4502894 15.897272,19.0024884 15.680643,19.5853009 C15.5965454,19.8115741 15.6100056,19.8302662 15.8568914,19.8229745 C16.354977,19.8082755 16.8528901,19.7860532 17.3506882,19.7627315 C18.0015531,19.7322917 18.6524755,19.7008681 19.3029378,19.6635417 C19.5313589,19.6504051 19.540735,19.6337963 19.416947,19.4318866 C19.2864289,19.2190394 19.1484904,19.0089699 18.9944457,18.8131366 C18.6646128,18.3936921 18.2594256,18.092419 17.7191761,17.9869213 C17.5069763,17.9454861 17.3008163,17.8489583 17.1049529,17.7512153 C16.3395035,17.3694444 15.8052938,16.7447917 15.3700801,16.0268519 C14.8069942,15.0979167 14.4252186,14.0877315 14.1727532,13.0373264 C13.9348985,12.0474537 13.7653802,11.0405671 13.5778,10.0389468 C13.5089458,9.67118056 13.5241317,9.66724537 13.2156395,9.84623843 C12.1953663,10.4383102 11.178602,11.0366898 10.1544748,11.6219907 C9.38258298,12.0630787 9.00730744,12.7168981 9.01421012,13.6113426 C9.02416148,14.9036458 9.0167411,16.1961227 9.01685615,17.4885417 M26.9832014,17.5192708 C26.9832014,16.1886574 26.984812,14.8581019 26.9825686,13.5274884 C26.9812456,12.7316551 26.6534835,12.1083912 25.9691981,11.7025463 C24.9053806,11.0715856 23.8327621,10.4556713 22.7623294,9.83616898 C22.5601385,9.71915509 22.5624394,9.72592593 22.529019,9.95358796 C22.4174257,10.7148148 22.3260227,11.4802083 22.1814116,12.2351852 C21.9466631,13.4604167 21.4794094,14.593287 20.7338628,15.599537 C20.3745784,16.084375 19.9520771,16.4986111 19.3945708,16.751794 C19.3616106,16.7667824 19.324106,16.7717014 19.2886723,16.7813079 C19.3142122,16.7504051 19.3360707,16.7153356 19.3657522,16.689294 C19.8818423,16.2364583 20.1649096,15.6421875 20.3828041,15.0065972 C20.4257733,14.8811343 20.4019015,14.8227431 20.2642506,14.8287616 C20.2163921,14.8308449 20.1683609,14.8275463 20.1205024,14.8292824 C18.9621181,14.8717593 17.8036764,14.9144676 16.6452346,14.9576389 C16.5974911,14.9594329 16.5497476,14.9650463 16.5021766,14.9703704 C16.3827028,14.9837384 16.3529062,15.038831 16.4214728,15.1429977 C16.5587786,15.3515625 16.6841772,15.5690972 16.83316,15.76875 C17.2009576,16.2615741 17.6651626,16.6056713 18.2805363,16.7406829 C18.527307,16.7947917 18.7717193,16.9039352 18.9912244,17.0328704 C19.9167584,17.5763889 20.4757602,18.4364583 20.9151731,19.3826968 C21.7499943,21.180787 22.1380973,23.1019676 22.4173682,25.050463 C22.4571736,25.328125 22.4630409,25.3393519 22.7051523,25.1991319 C23.7754699,24.5793981 24.84596,23.9597801 25.9135741,23.3354167 C26.6401383,22.9105324 26.9877456,22.2690972 26.9845244,21.4243056 C26.979635,20.1226273 26.9832589,18.8209491 26.9832014,17.5192708 M17.8274331,5 L18.1725669,5 C18.5330017,5.1478588 18.9155251,5.2568287 19.2503049,5.44971065 C22.1248672,7.10578704 24.9874074,8.7828125 27.8613945,10.4398148 C28.6248881,10.8800347 29.0021194,11.5059028 28.999991,12.3939236 C28.9918804,15.7978588 28.9918804,19.201794 28.999991,22.6056713 C29.0021194,23.4936921 28.6254058,24.1201389 27.8616245,24.5599537 C25.2359037,26.0719329 22.6204219,27.6019676 19.9986701,29.1208333 C19.4128629,29.4603009 18.8562771,29.8648727 18.1725669,30 L17.8274331,30 C17.4670558,29.8521412 17.0844749,29.7432292 16.7497526,29.5503472 C13.8751328,27.894213 11.0124776,26.2171875 8.13843297,24.5600116 C7.37493937,24.1197917 6.99788064,23.4939236 7.00000897,22.6058449 C7.00817714,19.2019676 7.00817714,15.7980903 7.00000897,12.394213 C6.99788064,11.5061921 7.37453672,10.879919 8.13837545,10.4399884 C10.7556405,8.93252315 13.3620913,7.40613426 15.9760201,5.89288194 C16.5699954,5.5490162 17.1339441,5.13709491 17.8274331,5" id="Fill-1" fill="#E6216D" mask="url(#mask-14)"></path>
                        </g>
                        <g id="scout" opacity="0.800000012" transform="translate(518.230845, 42.004531)">
                            <mask id="mask-17" fill="white">
                                <use xlink:href="#path-16"></use>
                            </mask>
                            <g id="Oval-5-Copy-3">
                                <use fill="black" fill-opacity="1" filter="url(#filter-18)" xlink:href="#path-16"></use>
                                <use fill="#F0592A" fill-rule="evenodd" xlink:href="#path-16"></use>
                            </g>
                            <path d="M15.404266,13.8918499 C15.2735239,14.0709768 15.1049858,14.0862717 14.8832096,13.9902373 C14.8899747,13.867731 14.8971809,13.7375772 14.9070344,13.5585974 C15.1214572,13.6518375 15.2789654,13.7205175 15.4482388,13.7941978 C15.4339734,13.8269936 15.4248553,13.8637602 15.404266,13.8918499 M21.07,8.70452294 C20.7816027,8.264059 20.2401042,8.26964752 19.8953805,7.90654052 C19.8887625,7.8387429 19.8772913,7.72285455 19.8625846,7.57431746 C19.5824231,7.4278393 19.3093208,7.25503625 19.0140114,7.13767725 C18.5391339,6.94884396 18.0774924,6.9013415 17.6757069,7.34165838 C17.5634952,7.46460591 17.3542197,7.49990185 17.1881817,7.57255267 C17.1084717,7.60740741 16.9730235,7.61623139 16.9534637,7.66991064 C16.8246335,8.02272299 16.4810863,7.95757257 16.2332794,8.06419573 C16.0563585,8.24111664 15.8829672,8.41436089 15.7097229,8.5877522 C15.4573569,8.65452036 15.2558759,8.82585274 15.025717,8.88394398 C14.7432024,8.9552712 14.5183378,9.08042473 14.2925909,9.25602204 C14.0983161,9.40720632 13.8530093,9.49294605 13.5659356,9.64074781 C13.3948974,9.68942679 13.1016469,9.51000575 12.8979599,9.77266639 C12.844869,9.72472274 12.7914838,9.67663201 12.7117738,9.60456947 C12.6198573,9.66104297 12.5277937,9.76251881 12.4274944,9.77134279 C12.1002716,9.79987368 11.7651073,9.73737045 11.4559736,9.91987988 C11.3833228,9.96282328 11.2289031,9.9675294 11.1714001,9.91929162 C10.8696198,9.6657491 10.5210724,9.82002178 10.196938,9.78090211 C10.0076635,9.75810681 9.78588731,9.80958006 9.6317617,9.72766406 C9.31468648,9.55927301 9.02717162,9.63295329 8.74995141,9.72060488 C8.67053554,9.67957334 8.60994417,9.64839526 8.56464771,9.6250117 C8.17286276,9.81075659 7.80357896,9.98605977 7.3119359,10.2193071 L6.73352365,10.2193071 C6.62278263,10.1197432 6.5204244,9.9487049 6.40644792,9.94061625 C6.10540295,9.91899748 6.08834324,9.6845736 6.0109863,9.5019171 C5.87597932,9.18307709 5.73700155,8.86659014 5.76244404,8.49936528 C5.7871512,8.14243506 5.7678855,7.78241646 5.7678855,7.31621589 C5.55860998,7.4712239 5.38551279,7.53107993 5.35065805,7.63652656 C5.13858827,8.27832444 5.10211579,8.94497655 5.2382993,9.60324587 C5.29197855,9.86296518 5.42610313,10.1063601 5.62670173,10.3300481 C5.84480124,10.5731489 6.14614035,10.9133136 6.03539933,11.2358303 C5.91186353,11.5959959 5.95245386,11.9377783 5.90877514,12.2861787 C5.89553916,12.3914782 5.8099465,12.4876597 5.75994391,12.5831058 C6.12437452,13.0715134 5.55434505,13.5284488 5.77435642,13.9639124 C5.64920289,14.089213 5.56258077,14.1758352 5.47478211,14.2634868 L5.47478211,14.5998277 C5.32712742,14.8821952 5.22182786,15.0833821 5.11667537,15.2845689 C4.76915741,15.7801828 4.19000982,16.1010817 4,16.6914064 C4.31898708,17.1576069 3.94602662,17.7452844 4.42178651,18.165159 C4.57708865,18.1567762 4.80224735,18.1448639 5.0999098,18.1291278 C4.88181029,18.0022094 4.74268545,17.9213229 4.60488421,17.8413188 L4.60488421,17.0202469 C4.9544611,16.7656749 5.21594521,16.3591833 5.80288731,16.4062446 C5.7472962,17.016129 5.69508762,17.5883645 5.64552623,18.1325103 L6.61337038,18.1325103 C6.35629827,17.9357354 6.18643655,17.8057287 6.00407418,17.6661626 C6.08113699,17.2298166 6.15040527,16.8384728 6.20526105,16.5277214 C6.45895063,16.1341717 6.77426105,15.8928357 7.07912975,15.678854 C7.45870819,15.4120755 7.71313311,15.2795687 7.90770199,14.939404 C7.95741044,14.9810238 8.00741303,15.0229378 8.08785836,15.0904413 C8.21624735,14.6999799 8.50008555,14.4082001 8.56214758,14.0109737 C8.98731662,13.8259641 8.84642698,13.2697589 9.22468183,13.0288641 L10.1204634,13.0288641 C10.2214981,13.1297517 10.3081202,13.2163738 10.4038604,13.3122611 C10.7197591,13.2215211 11.0113918,13.4278553 11.3489093,13.3910887 C11.7173107,13.3510867 12.1013011,13.453739 12.5045572,13.4969765 C12.6226516,13.5955111 12.7176565,13.7452247 12.9541393,13.763755 C13.320923,13.792433 13.7132962,13.8537597 13.7230026,14.3873167 C13.7252086,14.4968812 13.9022766,14.6033573 14.0041936,14.7174808 L14.0041936,15.5888494 C14.3680359,15.8313619 13.9953696,16.0913754 14.0022817,16.3415353 C14.1040517,16.3809492 14.1884678,16.4134508 14.2765606,16.4474232 C14.2343525,16.5215447 14.1458186,16.604196 14.1580251,16.6674345 C14.2450884,17.115693 14.352741,17.5598336 14.4458341,17.9704431 L15.3310269,17.9704431 C15.3242618,17.8783795 15.3205852,17.830877 15.3148496,17.753226 C15.1861665,17.7330779 15.0513065,17.7119003 14.8740915,17.6841047 C14.9538015,17.2848194 14.7518793,16.8718569 15.0093926,16.4941903 C14.7745275,16.0921107 14.8573259,15.6963549 15.0452768,15.3156 C14.9851266,15.2494201 14.9370359,15.1967703 14.9015929,15.1576506 C15.0696898,14.9795532 15.2370514,14.8018969 15.3016136,14.7336581 C15.8301703,14.5184999 16.2287203,14.3562857 16.6180052,14.1978951 L16.6180052,13.6421311 C16.4009351,13.4015304 15.9387054,13.4144723 16.090625,12.9131228 C16.5521194,12.4245682 17.1850933,11.9860161 17.2498025,11.1984754 C17.4784908,10.9327264 17.6940902,10.6824193 17.8560103,10.4941743 C18.2650021,10.1897468 18.618991,9.92635081 18.9943045,9.64707166 C19.4421217,9.5838331 19.9311176,9.51471188 20.4454089,9.44206107 C20.4892347,9.39602928 20.5536498,9.32823165 20.6145353,9.26425776 C20.5667387,9.20704892 20.5249718,9.15704633 20.5026177,9.13042731 C20.6985102,8.98336089 20.8851375,8.84320658 21.07,8.70452294" id="Fill-1" fill="#FFFFFF" mask="url(#mask-17)"></path>
                        </g>
                        <g id="redisgreen" transform="translate(11.000000, 92.000000)">
                            <path d="M28.7146232,14.6426464 C28.7146232,22.5722551 22.2867101,29.0001681 14.3571014,29.0001681 C6.42791304,29.0001681 0,22.5722551 0,14.6426464 C0,6.71345797 6.42791304,0.285544928 14.3571014,0.285544928 C22.2867101,0.285544928 28.7146232,6.71345797 28.7146232,14.6426464" id="Fill-1" fill="#83A365"></path>
                            <polygon id="Fill-4" fill="#BCBDC0" points="14 14.0156127 14 23 6 19.2543273 6 10"></polygon>
                            <polygon id="Fill-6" fill="#DBDCDD" points="14 23 22 19.1440643 22 10 14 14.0156127"></polygon>
                            <polygon id="Fill-8" fill="#FFFFFF" points="6 9.86913827 13.9170899 6 22 9.86913827 13.9170899 14"></polygon>
                        </g>
                        <g id="memcachier" opacity="0.5" transform="translate(0.941704, 1.256276)">
                            <mask id="mask-20" fill="white">
                                <use xlink:href="#path-19"></use>
                            </mask>
                            <g id="Oval-5-Copy-4">
                                <use fill="black" fill-opacity="1" filter="url(#filter-21)" xlink:href="#path-19"></use>
                                <use fill="#FFFFFF" fill-rule="evenodd" xlink:href="#path-19"></use>
                            </g>
                            <g id="Page-1" mask="url(#mask-20)">
                                <g transform="translate(4.000000, 4.000000)">
                                    <polygon id="Fill-1" fill="#0C0D0C" points="2.13346667 12.0000659 2.8 12.0000659 2.8 0.131802198 2.13346667 0.131802198"></polygon>
                                    <polygon id="Fill-2" fill="#0C0D0C" points="3.3112 12.0000659 3.97786667 12.0000659 3.97786667 0.131802198 3.3112 0.131802198"></polygon>
                                    <polygon id="Fill-3" fill="#0C0D0C" points="4.48893333 12.0000659 5.15546667 12.0000659 5.15546667 0.131802198 4.48893333 0.131802198"></polygon>
                                    <polygon id="Fill-4" fill="#0C0D0C" points="5.66666667 12.0000659 6.33333333 12.0000659 6.33333333 0.131802198 5.66666667 0.131802198"></polygon>
                                    <polygon id="Fill-5" fill="#0C0D0C" points="6.8444 12.0000659 7.51093333 12.0000659 7.51093333 0.131802198 6.8444 0.131802198"></polygon>
                                    <polygon id="Fill-6" fill="#0C0D0C" points="8.02226667 12.0000659 8.68893333 12.0000659 8.68893333 0.131802198 8.02226667 0.131802198"></polygon>
                                    <polygon id="Fill-7" fill="#0C0D0C" points="9.2 12.0000659 9.86666667 12.0000659 9.86666667 0.131802198 9.2 0.131802198"></polygon>
                                    <polygon id="Fill-8" fill="#0C0D0C" points="0 9.75817582 12 9.75817582 12 9.09883516 0 9.09883516"></polygon>
                                    <polygon id="Fill-9" fill="#0C0D0C" points="0 8.59338462 12 8.59338462 12 7.93404396 0 7.93404396"></polygon>
                                    <polygon id="Fill-10" fill="#0C0D0C" points="0 7.42859341 12 7.42859341 12 6.76938462 0 6.76938462"></polygon>
                                    <polygon id="Fill-11" fill="#0C0D0C" points="0 6.26367033 12 6.26367033 12 5.60446154 0 5.60446154"></polygon>
                                    <polygon id="Fill-12" fill="#0C0D0C" points="0 5.09901099 12 5.09901099 12 4.43967033 0 4.43967033"></polygon>
                                    <polygon id="Fill-13" fill="#0C0D0C" points="0 3.93408791 12 3.93408791 12 3.27487912 0 3.27487912"></polygon>
                                    <polygon id="Fill-14" fill="#0C0D0C" points="0 2.76942857 12 2.76942857 12 2.11008791 0 2.11008791"></polygon>
                                    <g id="Group-23" stroke-width="1" fill="none" transform="translate(1.066667, 1.186879)">
                                        <path d="M9.54752,0.0419868132 L0.43272,0.0419868132 C0.25432,0.0419868132 0.10952,0.185063736 0.10952,0.361635165 L0.10952,9.03183297 C0.10952,9.20827253 0.25432,9.35134945 0.43272,9.35134945 L9.54752,9.35134945 C9.72592,9.35134945 9.87072,9.20827253 9.87072,9.03183297 L9.87072,0.361635165 C9.87072,0.185063736 9.72592,0.0419868132 9.54752,0.0419868132" id="Fill-15" fill="#343230"></path>
                                        <path d="M8.76366667,0.85443956 L1.21646667,0.85443956 C1.11713333,0.85443956 1.0366,0.934087912 1.0366,1.03232967 L1.0366,8.36103297 C1.0366,8.45927473 1.11713333,8.53892308 1.21646667,8.53892308 L8.76366667,8.53892308 C8.863,8.53892308 8.94366667,8.45927473 8.94366667,8.36103297 L8.94366667,1.03232967 C8.94366667,0.934087912 8.863,0.85443956 8.76366667,0.85443956" id="Fill-17" fill="#383635"></path>
                                        <path d="M1.21653333,0.986307692 C1.19093333,0.986307692 1.16986667,1.00701099 1.16986667,1.03232967 L1.16986667,8.36103297 C1.16986667,8.38635165 1.19093333,8.40705495 1.21653333,8.40705495 L8.76373333,8.40705495 C8.78933333,8.40705495 8.81026667,8.38635165 8.81026667,8.36103297 L8.81026667,1.03232967 C8.81026667,1.00701099 8.78933333,0.986307692 8.76373333,0.986307692 L1.21653333,0.986307692 Z M8.76373333,8.67079121 L1.21653333,8.67079121 C1.04373333,8.67079121 0.9032,8.53193407 0.9032,8.36103297 L0.9032,1.03232967 C0.9032,0.86156044 1.04373333,0.722571429 1.21653333,0.722571429 L8.76373333,0.722571429 C8.9364,0.722571429 9.07693333,0.86156044 9.07693333,1.03232967 L9.07693333,8.36103297 C9.07693333,8.53193407 8.9364,8.67079121 8.76373333,8.67079121 Z" id="Fill-19" fill="#E7E7E7"></path>
                                        <path d="M5.03737333,5.17015385 C5.22590667,4.25156044 5.42190667,3.33415385 5.60057333,2.41358242 C5.71924,1.80131868 6.03670667,1.38857143 6.70044,1.39265934 C7.34124,1.39661538 7.57217333,1.87054945 7.64257333,2.40026374 C7.81870667,3.72303297 7.96177333,5.05041758 8.11270667,6.37635165 C8.17110667,6.88971429 8.21564,7.40452747 8.27124,7.96589011 C7.95817333,7.98052747 7.74070667,7.98118681 7.52537333,8.00294505 C7.12177333,8.04382418 6.99177333,7.86461538 6.96777333,7.47389011 C6.89324,6.26940659 6.78177333,5.06716484 6.67870667,3.86452747 C6.66124,3.66052747 6.61377333,3.45916484 6.42457333,3.25450549 C6.10684,4.59323077 5.78950667,5.93182418 5.47150667,7.27041758 C5.39217333,7.60430769 5.39950667,8.00531868 4.89150667,8.01151648 C4.38457333,8.01771429 4.37657333,7.6323956 4.30324,7.28874725 C4.03857333,6.048 3.76990667,4.80791209 3.49644,3.56901099 C3.46977333,3.44808791 3.39964,3.33665934 3.24164,3.22404396 C3.08497333,4.78826374 2.92857333,6.35274725 2.76804,7.95626374 L1.65830667,7.95626374 C1.63870667,7.8872967 1.58857333,7.80408791 1.59644,7.72654945 C1.77844,5.95806593 1.95604,4.18905495 2.16017333,2.42294505 C2.22550667,1.85802198 2.48897333,1.40492308 3.14977333,1.37327473 C3.71017333,1.34637363 4.10457333,1.7192967 4.25457333,2.39815385 C4.45910667,3.32518681 4.65297333,4.25446154 4.85137333,5.18281319 C4.91337333,5.17846154 4.97537333,5.17437363 5.03737333,5.17015385" id="Fill-21" fill="#90C73E"></path>
                                    </g>
                                </g>
                            </g>
                        </g>
                    </g>
                    <g id="blank-dots" transform="translate(43.000000, 4.000000)">
                        <ellipse id="Oval" fill="url(#linearGradient-22)" cx="13.1154709" cy="102.091293" rx="12.5381166" ry="12.5146827"></ellipse>
                        <path d="M561.396861,178.436646 C567.866182,178.436646 573.109978,173.202651 573.109978,166.746963 C573.109978,160.291276 567.866182,155.057281 561.396861,155.057281 C554.92754,155.057281 549.683744,160.291276 549.683744,166.746963 C549.683744,173.202651 554.92754,178.436646 561.396861,178.436646 Z M561.396861,179.261646 C554.47225,179.261646 548.858744,173.658632 548.858744,166.746963 C548.858744,159.835295 554.47225,154.232281 561.396861,154.232281 C568.321472,154.232281 573.934978,159.835295 573.934978,166.746963 C573.934978,173.658632 568.321472,179.261646 561.396861,179.261646 Z" id="Oval-Copy" fill="#456CB4" fill-rule="nonzero" opacity="0.600000024"></path>
                        <path d="M181.727018,9.49107211 C184.084851,9.49107211 185.995628,7.58386678 185.995628,5.23198227 C185.995628,2.88009776 184.084851,0.972892426 181.727018,0.972892426 C179.369185,0.972892426 177.458408,2.88009776 177.458408,5.23198227 C177.458408,7.58386678 179.369185,9.49107211 181.727018,9.49107211 Z M181.727018,10.3160721 C178.913895,10.3160721 176.633408,8.03984756 176.633408,5.23198227 C176.633408,2.42411698 178.913895,0.147892426 181.727018,0.147892426 C184.540141,0.147892426 186.820628,2.42411698 186.820628,5.23198227 C186.820628,8.03984756 184.540141,10.3160721 181.727018,10.3160721 Z" id="Oval-Copy-4" fill="#456CB4" fill-rule="nonzero" opacity="0.600000024"></path>
                        <path d="M520.647982,50.1637909 C524.087786,50.1637909 526.875673,47.3811146 526.875673,43.9492818 C526.875673,40.5174491 524.087786,37.7347728 520.647982,37.7347728 C517.208178,37.7347728 514.420291,40.5174491 514.420291,43.9492818 C514.420291,47.3811146 517.208178,50.1637909 520.647982,50.1637909 Z M520.647982,50.9887909 C516.752889,50.9887909 513.595291,47.8370953 513.595291,43.9492818 C513.595291,40.0614684 516.752889,36.9097728 520.647982,36.9097728 C524.543076,36.9097728 527.700673,40.0614684 527.700673,43.9492818 C527.700673,47.8370953 524.543076,50.9887909 520.647982,50.9887909 Z" id="Oval-Copy-2" fill="#3AC3A8" fill-rule="nonzero" opacity="0.600000024"></path>
                        <path d="M131.182735,208.16166 C134.622539,208.16166 137.410426,205.378984 137.410426,201.947151 C137.410426,198.515318 134.622539,195.732642 131.182735,195.732642 C127.742932,195.732642 124.955045,198.515318 124.955045,201.947151 C124.955045,205.378984 127.742932,208.16166 131.182735,208.16166 Z M131.182735,208.98666 C127.287642,208.98666 124.130045,205.834964 124.130045,201.947151 C124.130045,198.059337 127.287642,194.907642 131.182735,194.907642 C135.077829,194.907642 138.235426,198.059337 138.235426,201.947151 C138.235426,205.834964 135.077829,208.98666 131.182735,208.98666 Z" id="Oval-Copy-3" fill="#3AC3A8" fill-rule="nonzero" opacity="0.600000024"></path>
                        <ellipse id="Oval-Copy-11" fill="url(#linearGradient-23)" cx="432.881166" cy="34.5632698" rx="10.1872197" ry="10.1681797"></ellipse>
                    </g>
                </g>
                <g id="Group-2" transform="translate(321.000000, 49.000000)" fill-rule="nonzero">
                    <g id="logo/logo-color" transform="translate(0.782651, 0.572378)">
                        <ellipse id="Mask" fill="url(#linearGradient-24)" transform="translate(31.500000, 32.470588) scale(-1, 1) translate(-31.500000, -32.470588) " cx="31.5" cy="32.4705882" rx="31.3177686" ry="31.3470102"></ellipse>
                        <path d="M62.3491736,27.0767137 C62.557438,28.1190083 62.6615702,29.1873602 62.7396694,30.2817696 C50.5041322,63.140107 31.1095041,57.1729703 31.1095041,57.1729703 L10.5173554,38.8285853 L15.4115702,34.5291201 C17.8066116,32.3924161 17.572314,17.4615459 24.731405,14.6734079 C27.8293388,13.4747691 31.1095041,14.9860963 31.7342975,15.1945552 C32.6714876,15.5072436 56.4136364,24.7576082 62.3491736,27.0767137 Z" id="Shape" fill="url(#linearGradient-25)"></path>
                        <path d="M62.3752066,27.102771 C62.6615702,28.8486145 62.8177686,30.6465727 62.8177686,32.4705882 C62.8177686,49.7726787 48.8119835,63.8175984 31.5,63.8175984 C29.6516529,63.8175984 27.8553719,63.6612543 26.085124,63.3485659 C25.2520661,60.14351 24.6012397,56.5215362 24.6012397,53.2904229 C24.6012397,44.4830335 29.2090909,38.6201264 33.9991736,41.1737482 C35.3008264,41.877297 36.446281,43.3365095 37.7219008,45.3168692 C39.6743802,48.3916383 41.7049587,49.8769081 43.6053719,49.9290228 C44.2561983,49.9550802 44.9330579,49.798736 45.5318182,49.4860476 C46.9115702,48.7564414 48.161157,47.1929995 49.1504132,44.7957219 C49.8793388,43.1019932 50.4520661,40.9652893 50.868595,38.4637822 L51.0768595,37.1348566 C51.6756198,33.4347107 52.664876,30.5944579 53.8884298,28.6401556 C53.8884298,28.6401556 53.9404959,28.5619835 54.018595,28.457754 C54.5913223,27.6239183 56.9603306,24.7836655 62.3752066,27.102771 Z" id="Shape" fill="url(#linearGradient-26)"></path>
                        <path d="M0.182231405,32.4705882 C0.182231405,30.7768595 0.312396694,29.1091881 0.598760331,27.4936315 L33.1400826,40.730773 C28.792562,39.2976179 25.2,46.2549344 25.2,53.8897423 C25.2,56.9645114 25.9028926,60.430141 26.7359504,63.4527953 C11.688843,61.1597472 0.182231405,48.157122 0.182231405,32.4705882 Z" id="Shape" fill="url(#linearGradient-27)"></path>
                    </g>
                    <path d="M6.89493775,55.7530672 L7.07374454,53.9619702 C14.5331578,54.7066501 22.4353421,55.0919699 30.5271306,55.0919699 C40.5958534,55.0919699 50.3615561,54.4951484 59.324579,53.3571674 L59.5512942,55.1428326 C50.5117802,56.2905252 40.6704291,56.8919699 30.5271306,56.8919699 C22.3762337,56.8919699 14.4143956,56.5037413 6.89493775,55.7530672 Z" id="Oval-Copy-12" fill="#2B1E38" opacity="0.100000001"></path>
                </g>
            </g>
        </g>
    </g>
</svg>